<?xml version="1.0" encoding="utf-8"?>
<!-- Generator: Adobe Illustrator 27.0.0, SVG Export Plug-In . SVG Version: 6.00 Build 0)  -->
<svg version="1.1" id="Layer_1" xmlns="http://www.w3.org/2000/svg" xmlns:xlink="http://www.w3.org/1999/xlink" x="0px" y="0px"
	 viewBox="0 0 32 32" style="enable-background:new 0 0 32 32;" xml:space="preserve">
<style type="text/css">
	.st0{fill:#FFFFFF;}
	.st1{fill:none;stroke:#000000;stroke-width:0.5;stroke-linecap:round;stroke-miterlimit:10;}
	.st2{fill:#FFFFFF;stroke:#000000;stroke-width:0.5;stroke-linecap:round;stroke-miterlimit:10;}
	.st3{fill:#FFFFFF;stroke:#000000;stroke-width:0.5;stroke-miterlimit:10;}
	.st4{fill:none;stroke:#000000;stroke-width:0.5;stroke-miterlimit:10;}
	.st5{fill:#3E52F3;stroke:#000000;stroke-width:0.5;stroke-miterlimit:10;}
</style>
<polygon class="st0" points="9,29 9.9,24.9 12,21.7 12.5,19.9 12.5,17.3 12.5,16.2 12,15 12.4,14.3 13.2,14 14.5,14.5 14.8,15.9 
	15.9,16.7 16.8,16.6 17.5,15.5 17.9,14 17.9,12.6 18.7,11.3 19.7,10.7 21.4,10.5 24.5,10.4 25.8,10.5 25.4,12.1 24.5,12.5 
	24.3,14.7 24.9,18.3 25.5,18.5 25.8,17.4 26,17.1 27.4,18.2 27.2,18.9 26.4,19.3 25.5,19.5 24.8,25.7 23.9,27.4 22.5,27.6 
	21.2,27.6 20,27.3 18.4,27 17.7,27.1 16.5,28.5 15.7,30.1 15.4,30.5 "/>
<path class="st1" d="M15.5,30.5c0,0,1.2-3.5,2.5-3.5"/>
<path class="st1" d="M15.5,25.5c3.5,2.3,6.2,2.1,8,2c0.9-0.1,1.4-1.6,1.6-3.4c0.4-2.2,0.4-4.6,0.4-4.6s1.8-0.3,2-1
	c0.1-0.5-1.5-1-2-2c-1-2,0-5,0-5s1-3,0-3"/>
<path class="st2" d="M22.5,22.5c0.9,1.1,1.1,1.1,2,1"/>
<path class="st2" d="M22.1,15.7c-0.2-0.3-0.2-0.6,0-0.9l0.5-0.8l0.5,0.9c0.1,0.2,0.1,0.5,0,0.8l-0.5,0.9L22.1,15.7z"/>
<polyline class="st1" points="13.5,13.5 21.9,14 24.5,14.5 "/>
<path class="st3" d="M25.2,18.5c0.8,0,0.8-4.2,0.8-4.2s0-2.3-0.8-2.3c-0.8,0-0.8,1.1-0.8,1.1S24,18.5,25.2,18.5z"/>
<path class="st3" d="M25.5,8.5"/>
<line class="st2" x1="10.5" y1="23.5" x2="8.5" y2="29.5"/>
<path class="st4" d="M9.5,23.5"/>
<path class="st2" d="M13.2,24.5"/>
<path class="st2" d="M10.4,23.9"/>
<path class="st2" d="M9.8,26"/>
<path class="st2" d="M11.7,29.6"/>
<path class="st2" d="M8.8,29"/>
<path class="st5" d="M9.5,25.5c-0.3-0.1-2.8-1.1-2-2.9c0,0,0-0.1,0-0.1c-0.4-0.1-2.9-1.1-2-3c1-2-0.9-3.9-1-4c0,0,0,0,0,0
	c-4.4-2.2-1.5-6.9,0.8-9.7c1.2-1.5,3.3-3.3,5.2-3.3c0,0,0,0,0,0l3-1c0,0,0,0,0,0c2.4-0.3,6-1,8-1h2c0.4-0.1,1.7,0.2,2.8,0.8
	c0.8,0.5,0.9,1.5,0.3,2.2l0,0c0,0,0,0,0,0.1l0.5,1.1c0.3,0.5,0.3,1.2,0.1,1.7L27.1,7c-0.3,1.5,1,3.2-0.6,3.5h-5c-1,0-2,0-2.9,0.9
	c-0.8,0.7-1,1.8-0.8,2.8c0.4,2-1.7,3.8-3.3,1.2l-1-1l0,0l0,0c-0.4,0.4-1,0.3-1,0.8v1.2v1v1.7c0,1.5-0.5,2.9-1.4,4.1L9.5,25.5
	C9.5,25.5,9.5,25.5,9.5,25.5z"/>
<path class="st2" d="M13.8,18.5c0,0-2.8-3.2-1.4-4.2s2.1,1.2,2.1,1.2"/>
</svg>
